<svg width="6541" height="3640" viewBox="800 0 5000 3640" fill="none" xmlns="http://www.w3.org/2000/svg">
<path d="M83.6309 486.453C325.149 628.866 538.989 813.688 714.876 1032.04C1129.08 1550.95 1072.61 1962.47 1310.28 2026.85C1677.54 2126.3 1914.7 1170.93 2686.84 1019.96C3253.18 909.154 3829.45 1285.63 3962.83 1372.86C4483.2 1712.75 4552.2 2089.34 4925.3 2099.35C5198.24 2106.96 5278.85 1908.79 5705.65 1824.85C6002.78 1766.42 6262.86 1803.55 6438.15 1844.79" stroke="white" stroke-width="5" stroke-miterlimit="10"/>
<path d="M83.873 531.454C325.413 673.915 539.284 858.764 715.221 1077.13C1129.43 1596.13 1072.96 2007.56 1310.53 2071.95C1677.89 2171.39 1915.04 1216.02 2687.09 1065.05C3253.53 954.34 3829.8 1330.82 3963.18 1417.95C4483.55 1757.84 4552.44 2134.44 4925.65 2144.44C5198.58 2152.05 5279.1 1953.89 5706 1869.94C6003.23 1811.51 6263.2 1848.64 6438.49 1889.88" stroke="white" stroke-width="5" stroke-miterlimit="10"/>
<path d="M84.1133 576.456C325.675 718.886 539.552 903.739 715.461 1122.13C1129.67 1641.14 1073.2 2052.56 1310.87 2116.94C1677.84 2216.41 1915.38 1261.01 2687.43 1110.05C3253.77 999.342 3830.04 1375.82 3963.42 1462.95C4483.79 1802.94 4552.78 2179.43 4925.89 2189.44C5198.82 2197.06 5279.42 1998.79 5706.23 1914.85C6003.46 1856.41 6263.44 1893.54 6438.72 1934.79" stroke="white" stroke-width="5" stroke-miterlimit="10"/>
<path d="M84.541 621.443C326.058 763.943 539.899 948.827 715.801 1167.22C1130.01 1686.23 1073.54 2097.65 1311.11 2162.04C1678.47 2261.48 1915.62 1306.11 2687.67 1155.15C3254.11 1044.43 3830.38 1420.91 3963.76 1508.04C4484.13 1848.03 4553.02 2224.53 4926.23 2234.53C5199.16 2242.15 5279.67 2043.89 5706.57 1959.94C6003.8 1901.5 6263.78 1938.63 6439.06 1979.88" stroke="white" stroke-width="5" stroke-miterlimit="10"/>
<path d="M84.6816 666.451C326.222 808.912 540.093 993.761 716.03 1212.12C1130.34 1731.12 1073.77 2142.65 1311.44 2206.94C1678.7 2306.38 1915.95 1351.01 2688 1200.04C3254.43 1089.33 3830.61 1465.82 3964.08 1552.94C4484.36 1892.94 4553.35 2269.42 4926.46 2279.44C5199.39 2287.05 5279.99 2088.78 5706.8 2004.84C6004.03 1946.41 6264.01 1983.63 6439.29 2024.78" stroke="white" stroke-width="5" stroke-miterlimit="10"/>
<path d="M85.0215 711.445C326.542 853.933 540.409 1038.78 716.37 1257.12C1130.58 1776.12 1074.11 2187.65 1311.68 2251.94C1678.75 2351.4 1916.19 1396.01 2688.31 1244.65C3254.65 1133.95 3830.92 1510.43 3964.3 1597.56C4484.67 1937.55 4553.56 2314.04 4926.77 2324.05C5199.7 2331.66 5280.21 2133.4 5707.11 2049.45C6004.34 1991.02 6264.32 2028.24 6439.7 2069.39" stroke="white" stroke-width="5" stroke-miterlimit="10"/>
<path d="M85.4512 756.527C326.967 899.036 540.784 1083.96 716.622 1302.41C1130.93 1821.41 1074.37 2232.94 1312.03 2297.22C1679.3 2396.76 1916.55 1441.39 2688.6 1290.42C3255.03 1179.61 3831.2 1556.1 3964.67 1643.22C4484.96 1983.22 4553.94 2359.71 4927.05 2369.72C5199.98 2377.33 5280.59 2179.07 5707.39 2095.13C6004.63 2036.79 6264.61 2073.92 6439.89 2115.07" stroke="white" stroke-width="5" stroke-miterlimit="10"/>
<path d="M85.5684 801.142C327.13 943.572 541.007 1128.43 716.917 1346.82C1131.12 1865.73 1074.65 2277.25 1312.23 2341.64C1679.59 2441.07 1916.74 1485.71 2688.88 1334.74C3255.22 1223.93 3831.49 1600.41 3964.87 1687.64C4485.24 2027.53 4554.13 2404.03 4927.34 2414.13C5200.28 2421.74 5280.88 2223.47 5707.69 2139.63C6004.82 2081.2 6264.8 2118.33 6440.19 2159.57" stroke="white" stroke-width="5" stroke-miterlimit="10"/>
<path d="M85.832 846.52C327.404 988.97 541.309 1173.82 717.276 1392.19C1131.48 1911.1 1074.92 2322.63 1312.59 2387.01C1679.66 2486.47 1917.1 1531.08 2689.13 1379.82C3255.55 1269.01 3831.73 1645.5 3965.21 1732.72C4485.48 2072.62 4554.48 2449.2 4927.59 2459.22C5200.52 2466.83 5281.13 2268.66 5707.94 2184.72C6005.16 2126.28 6265.14 2163.41 6440.43 2204.66" stroke="white" stroke-width="5" stroke-miterlimit="10"/>
<path d="M86.3594 891.499C327.875 1034.09 541.692 1219.08 717.546 1437.57C1131.76 1956.58 1075.28 2368.01 1312.95 2432.38C1680.21 2531.83 1917.37 1576.46 2689.51 1425.49C3255.85 1314.69 3832.12 1691.17 3965.5 1778.39C4485.87 2118.29 4554.77 2494.88 4927.97 2504.88C5200.91 2512.5 5281.52 2314.33 5708.32 2230.39C6005.45 2171.96 6265.43 2209.09 6440.82 2250.33" stroke="white" stroke-width="5" stroke-miterlimit="10"/>
<path d="M86.4902 936.321C328.01 1078.81 541.877 1263.65 717.838 1481.99C1132.05 2001 1075.58 2412.43 1313.15 2476.81C1680.41 2576.26 1917.66 1620.89 2689.71 1469.92C3256.15 1359.21 3832.32 1735.69 3965.79 1822.82C4486.07 2162.72 4555.06 2539.3 4928.27 2549.31C5201.1 2556.93 5281.71 2358.76 5708.62 2274.81C6005.84 2216.37 6265.82 2253.5 6441.11 2294.75" stroke="white" stroke-width="5" stroke-miterlimit="10"/>
<path d="M86.7363 981.51C328.276 1123.97 542.148 1308.82 718.084 1527.18C1132.3 2046.19 1075.82 2457.62 1313.49 2522C1680.75 2621.44 1917.9 1666.07 2690.05 1515.1C3256.39 1404.4 3832.66 1780.87 3966.04 1868.01C4486.42 2208 4555.31 2584.49 4928.51 2594.5C5201.44 2602.11 5282.05 2403.84 5708.86 2319.9C6005.99 2261.47 6265.96 2298.6 6441.35 2339.84" stroke="white" stroke-width="5" stroke-miterlimit="10"/>
<path d="M87.2676 1026.49C328.768 1169 542.63 1353.85 718.616 1572.16C1132.83 2091.17 1076.35 2502.6 1313.93 2566.98C1680.99 2666.35 1918.41 1710.67 2690.3 1560.1C3256.73 1449.39 3832.91 1825.88 3966.38 1913C4486.66 2253 4555.65 2629.49 4928.85 2639.49C5201.69 2647.11 5282.29 2448.84 5709.2 2364.9C6006.42 2306.46 6266.41 2343.69 6441.69 2384.84" stroke="white" stroke-width="5" stroke-miterlimit="10"/>
<path d="M87.3105 1071.51C328.85 1213.97 542.722 1398.82 718.659 1617.18C1132.87 2136.19 1076.4 2547.71 1314.07 2611.99C1681.33 2711.44 1918.48 1756.07 2690.63 1605.1C3256.97 1494.39 3833.24 1870.87 3966.52 1958.01C4486.9 2298 4555.79 2674.49 4928.99 2684.5C5201.92 2692.11 5282.52 2493.85 5709.33 2409.91C6006.46 2351.48 6266.45 2388.7 6441.83 2429.85" stroke="white" stroke-width="5" stroke-miterlimit="10"/>
<path d="M87.6445 1116.5C329.165 1258.99 543.031 1443.83 718.993 1662.17C1133.21 2181.18 1076.74 2592.7 1314.3 2656.99C1681.47 2756.45 1918.81 1801.07 2690.87 1650.2C3257.31 1539.48 3833.48 1915.97 3966.96 2003.09C4487.24 2343.09 4556.22 2719.58 4929.43 2729.58C5202.26 2737.2 5282.87 2538.94 5709.77 2454.99C6007 2396.65 6266.98 2433.78 6442.26 2474.93" stroke="white" stroke-width="5" stroke-miterlimit="10"/>
<path d="M88.1836 1161.57C329.764 1303.98 543.645 1488.83 719.532 1707.25C1133.74 2226.16 1077.27 2637.68 1314.93 2701.96C1681.91 2801.53 1919.33 1845.85 2691.21 1695.19C3257.54 1584.39 3833.82 1960.86 3967.19 2048C4487.57 2387.99 4556.46 2764.48 4929.66 2774.49C5202.6 2782.1 5283.2 2583.83 5710.01 2499.89C6007.15 2441.56 6267.12 2478.69 6442.5 2519.83" stroke="white" stroke-width="5" stroke-miterlimit="10"/>
<path d="M88.2344 1206.68C329.796 1349.11 543.673 1533.97 719.583 1752.36C1133.79 2271.27 1077.32 2682.79 1314.89 2747.18C1682.16 2846.62 1919.4 1891.25 2691.45 1740.28C3257.88 1629.47 3834.06 2005.96 3967.54 2093.18C4487.81 2433.08 4556.81 2809.67 4930.01 2819.67C5202.94 2827.28 5283.46 2629.12 5710.36 2545.17C6007.59 2486.74 6267.57 2523.87 6442.85 2565.11" stroke="white" stroke-width="5" stroke-miterlimit="10"/>
<path d="M88.4629 1251.59C330.025 1394.02 543.902 1578.88 719.811 1797.27C1134.02 2316.18 1077.55 2727.7 1315.22 2792.08C1682.38 2891.53 1919.63 1936.16 2691.79 1785.38C3258.13 1674.57 3834.4 2051.05 3967.78 2138.28C4488.15 2478.17 4557.05 2854.77 4930.25 2864.77C5203.19 2872.39 5283.8 2674.21 5710.6 2590.27C6007.73 2531.85 6267.71 2568.97 6443.1 2610.21" stroke="white" stroke-width="5" stroke-miterlimit="10"/>
<path d="M89.0859 1296.56C330.626 1439.03 544.497 1623.87 720.434 1842.24C1134.65 2361.24 1078.17 2772.67 1315.75 2837.06C1682.73 2936.72 1920.25 1981.03 2692.02 1830.19C3258.45 1719.47 3834.72 2095.95 3968.1 2183.08C4488.38 2522.98 4557.37 2899.57 4930.57 2909.57C5203.51 2917.19 5284.02 2719.02 5710.93 2635.07C6008.15 2576.64 6268.13 2613.77 6443.42 2655.01" stroke="white" stroke-width="5" stroke-miterlimit="10"/>
<path d="M89.0645 1341.87C330.627 1484.3 544.503 1669.15 720.413 1887.54C1134.63 2406.55 1078.15 2817.98 1315.82 2882.36C1683.08 2981.8 1920.23 2026.43 2692.38 1875.46C3258.7 1764.47 3834.97 2140.95 3968.35 2228.08C4488.72 2568.07 4557.61 2944.56 4930.82 2954.57C5203.75 2962.18 5284.35 2763.91 5711.16 2679.97C6008.29 2621.55 6268.27 2658.67 6443.65 2699.91" stroke="white" stroke-width="5" stroke-miterlimit="10"/>
<path d="M89.3711 1386.58C330.911 1529.04 544.782 1713.89 720.719 1932.26C1134.93 2451.26 1078.46 2862.69 1316.03 2927.08C1683.29 3026.52 1920.54 2071.15 2692.62 1920.57C3259.06 1809.85 3835.33 2186.33 3968.71 2273.46C4488.99 2613.46 4557.97 2989.95 4931.18 2999.95C5204.11 3007.57 5284.62 2809.31 5711.52 2725.36C6008.75 2666.92 6268.73 2704.05 6444.01 2745.3" stroke="white" stroke-width="5" stroke-miterlimit="10"/>
<path d="M89.9961 1431.55C331.536 1574.01 545.407 1758.86 721.344 1977.23C1135.56 2496.23 1079.09 2907.76 1316.75 2972.04C1683.66 3071.9 1921.17 2116.21 2692.93 1965.18C3259.27 1854.47 3835.54 2230.95 3968.92 2318.08C4489.29 2658.07 4558.18 3034.56 4931.39 3044.57C5204.32 3052.18 5284.92 2853.92 5711.73 2769.98C6008.86 2711.55 6268.94 2748.77 6444.22 2789.92" stroke="white" stroke-width="5" stroke-miterlimit="10"/>
<path d="M89.9863 1477.05C331.506 1619.54 545.373 1804.38 721.335 2022.72C1135.55 2541.73 1079.08 2953.25 1316.65 3017.54C1683.91 3116.99 1921.15 2161.61 2693.21 2010.65C3259.6 1899.45 3835.88 2275.93 3969.25 2363.06C4489.63 2703.05 4558.52 3079.55 4931.72 3089.55C5204.66 3097.17 5285.16 2898.91 5712.07 2814.96C6009.29 2756.52 6269.28 2793.75 6444.56 2834.9" stroke="white" stroke-width="5" stroke-miterlimit="10"/>
<path d="M90.1934 1521.67C331.745 1664.08 545.618 1848.9 721.534 2067.25C1135.75 2586.26 1079.28 2997.78 1316.94 3062.06C1684.21 3161.61 1921.36 2206.24 2693.5 2055.17C3259.84 1944.46 3836.11 2320.94 3969.49 2408.07C4489.87 2748.06 4558.85 3124.55 4931.96 3134.56C5204.89 3142.18 5285.5 2943.91 5712.31 2859.97C6009.44 2801.64 6269.52 2838.76 6444.8 2879.91" stroke="white" stroke-width="5" stroke-miterlimit="10"/>
<path d="M90.9102 1566.62C332.472 1709.05 546.349 1893.9 722.258 2112.29C1136.46 2631.2 1080 3042.73 1317.57 3107.11C1684.58 3207.06 1922.09 2251.38 2693.75 2100.25C3260.17 1989.44 3836.45 2365.92 3969.83 2453.15C4490.2 2793.04 4559.09 3169.54 4932.3 3179.64C5205.24 3187.25 5285.74 2988.99 5712.65 2905.14C6009.88 2846.7 6269.86 2883.83 6445.15 2925.08" stroke="white" stroke-width="5" stroke-miterlimit="10"/>
<path d="M90.7656 1611.65C332.328 1754.08 546.204 1938.93 722.114 2157.33C1136.32 2676.24 1079.85 3087.76 1317.52 3152.14C1684.78 3251.58 1922.03 2296.21 2694.08 2145.25C3260.41 2034.44 3836.66 2410.63 3970.17 2498.14C4490.44 2838.04 4559.43 3214.63 4932.54 3224.64C5205.47 3232.25 5286.08 3034.08 5712.89 2950.14C6010.12 2891.71 6270.1 2928.83 6445.38 2970.08" stroke="white" stroke-width="5" stroke-miterlimit="10"/>
<path d="M91.0996 1656.65C332.639 1799.11 546.511 1983.96 722.448 2202.32C1136.66 2721.33 1080.19 3132.75 1317.76 3197.14C1685.12 3296.58 1922.27 2341.21 2694.32 2190.25C3260.75 2079.44 3837.02 2455.91 3970.4 2543.14C4490.77 2883.04 4559.67 3259.63 4932.88 3269.63C5205.81 3277.25 5286.32 3079.08 5713.23 2995.13C6010.45 2936.7 6270.43 2973.83 6445.72 3015.07" stroke="white" stroke-width="5" stroke-miterlimit="10"/>
</svg>
