<svg width="6596" height="2935" viewBox="0 0 6596 2935" fill="none" xmlns="http://www.w3.org/2000/svg">
<g clip-path="url(#clip0_1545_309)" filter="url(#filter0_dd_1545_309)">
<path d="M-332.879 -76C-61.5026 65.8843 173.358 243.162 360.417 447.313C800.499 932.221 696.026 1290.27 970.067 1363.26C1393.53 1476.01 1761.01 652.084 2684.53 572.47C3361.89 514.012 4006.03 884.809 4155.11 970.711C4736.76 1305.48 4783.31 1641.44 5221.91 1675.94C5542.73 1701.43 5655.96 1532.68 6166.49 1488.25C6521.9 1457.32 6824.85 1507.87 7027.53 1556.22" stroke="white" stroke-width="5" stroke-miterlimit="10"/>
<path d="M-336.744 -36.4043C-65.346 105.523 169.549 282.826 356.666 486.994C796.748 971.987 692.275 1329.95 966.202 1402.94C1389.78 1515.69 1757.26 691.765 2680.67 612.151C3358.14 553.778 4002.28 924.575 4151.36 1010.39C4733.01 1345.16 4779.45 1681.12 5218.16 1715.62C5538.98 1741.11 5652.1 1572.36 6162.74 1527.93C6518.26 1497 6821.1 1547.55 7023.78 1595.9" stroke="white" stroke-width="5" stroke-miterlimit="10"/>
<path d="M-340.609 3.19189C-69.1822 145.093 165.719 322.401 352.801 526.59C792.882 1011.58 688.41 1369.55 962.451 1442.54C1385.58 1555.29 1753.51 731.361 2676.91 651.747C3354.28 593.374 3998.41 964.171 4147.49 1049.99C4729.15 1384.84 4775.69 1720.72 5214.3 1755.22C5535.11 1780.71 5648.35 1611.88 6158.87 1567.44C6514.4 1536.51 6817.23 1587.07 7019.92 1635.41" stroke="white" stroke-width="5" stroke-miterlimit="10"/>
<path d="M-344.254 42.7886C-72.8866 184.749 161.97 362.081 349.042 566.272C789.124 1051.26 684.652 1409.23 958.579 1482.22C1382.16 1594.97 1749.63 771.043 2673.04 691.428C3350.52 633.056 3994.65 1003.85 4143.74 1089.67C4725.39 1424.53 4771.82 1760.4 5210.54 1794.9C5531.35 1820.39 5644.47 1651.56 6155.11 1607.12C6510.64 1576.19 6813.47 1626.75 7016.16 1675.09" stroke="white" stroke-width="5" stroke-miterlimit="10"/>
<path d="M-348.238 82.3833C-76.8402 224.311 158.055 401.614 345.172 605.781C785.367 1090.77 680.781 1448.83 954.822 1521.73C1378.29 1634.48 1745.88 810.552 2669.28 730.938C3346.76 672.566 3990.78 1043.36 4139.98 1129.18C4721.52 1464.04 4768.07 1799.91 5206.67 1834.41C5527.48 1859.9 5640.72 1691.07 6151.24 1646.63C6506.77 1615.7 6809.6 1666.34 7012.29 1714.6" stroke="white" stroke-width="5" stroke-miterlimit="10"/>
<path d="M-351.988 121.979C-80.6159 263.93 154.274 441.229 341.422 645.378C781.503 1130.37 677.031 1488.42 950.958 1561.32C1374.2 1674.08 1742.01 850.149 2665.53 770.194C3342.9 711.822 3987.03 1082.62 4136.12 1168.44C4717.77 1503.29 4764.2 1839.17 5202.92 1873.66C5523.73 1899.15 5636.85 1730.32 6147.49 1685.89C6503.02 1654.96 6805.85 1705.6 7008.65 1753.86" stroke="white" stroke-width="5" stroke-miterlimit="10"/>
<path d="M-355.639 161.659C-84.2731 303.627 150.551 480.992 337.544 685.227C777.739 1170.22 673.153 1528.27 947.194 1601.17C1370.66 1714.01 1738.25 890.083 2661.66 810.468C3339.13 752.011 3983.15 1122.81 4132.35 1208.62C4713.89 1543.48 4760.44 1879.36 5199.04 1913.85C5519.85 1939.34 5633.09 1770.51 6143.62 1726.08C6499.14 1695.23 6801.97 1745.79 7004.66 1794.05" stroke="white" stroke-width="5" stroke-miterlimit="10"/>
<path d="M-359.617 200.907C-88.19 342.808 146.711 520.116 333.793 724.305C773.875 1209.21 669.402 1567.26 943.329 1640.25C1366.91 1753 1734.38 929.076 2657.91 849.462C3335.27 791.004 3979.4 1161.8 4128.49 1247.7C4710.14 1582.47 4756.57 1918.35 5195.29 1952.93C5516.1 1978.42 5629.34 1809.59 6139.87 1765.24C6495.28 1734.31 6798.11 1784.87 7000.91 1833.21" stroke="white" stroke-width="5" stroke-miterlimit="10"/>
<path d="M-363.492 240.834C-92.0549 382.755 142.879 560.058 330.032 764.233C770.113 1249.14 665.527 1607.19 939.568 1680.18C1362.81 1792.93 1730.62 969.004 2654.03 889.134C3331.51 830.677 3975.53 1201.47 4124.73 1287.38C4706.27 1622.15 4752.81 1958.11 5191.41 1992.6C5512.23 2018.09 5625.46 1849.35 6135.99 1804.91C6491.51 1773.98 6794.35 1824.54 6997.03 1872.88" stroke="white" stroke-width="5" stroke-miterlimit="10"/>
<path d="M-367.018 280.431C-95.6609 422.475 139.158 599.894 326.165 804.169C766.246 1289.16 661.774 1647.13 935.815 1720.12C1359.28 1832.87 1726.76 1008.94 2650.28 929.325C3327.64 870.868 3971.77 1241.66 4120.86 1327.57C4702.51 1662.34 4748.94 1998.3 5187.66 2032.79C5508.47 2058.28 5621.71 1889.54 6132.24 1845.1C6487.65 1814.17 6790.48 1864.73 6993.28 1913.08" stroke="white" stroke-width="5" stroke-miterlimit="10"/>
<path d="M-370.998 319.861C-99.6257 461.811 135.264 639.11 322.412 843.259C762.494 1328.25 658.021 1686.22 931.948 1759.21C1355.41 1871.96 1723 1048.03 2646.41 968.416C3323.89 910.044 3967.91 1280.84 4117.11 1366.66C4698.65 1701.43 4745.19 2037.39 5183.91 2071.89C5504.61 2097.38 5617.84 1928.63 6128.48 1884.19C6484.01 1853.26 6786.84 1903.82 6989.53 1952.17" stroke="white" stroke-width="5" stroke-miterlimit="10"/>
<path d="M-374.877 359.623C-103.479 501.55 131.416 678.853 318.533 883.021C758.615 1368.01 654.142 1725.98 928.183 1798.97C1351.65 1911.72 1719.12 1087.79 2642.65 1008.18C3320.01 949.805 3964.14 1320.6 4113.23 1406.42C4694.88 1741.27 4741.31 2077.15 5180.03 2111.65C5500.84 2137.14 5614.08 1968.31 6124.61 1923.87C6480.02 1892.94 6782.85 1943.5 6985.65 1991.84" stroke="white" stroke-width="5" stroke-miterlimit="10"/>
<path d="M-378.398 399.219C-107.052 541.192 127.833 718.487 315.012 922.617C755.093 1407.61 650.621 1765.58 924.548 1838.56C1347.79 1951.23 1715.6 1127.05 2638.78 1047.77C3316.26 989.402 3960.28 1360.2 4109.48 1446.02C4691.02 1780.87 4737.56 2116.75 5176.28 2151.24C5496.98 2176.73 5610.22 2007.9 6120.86 1963.47C6476.38 1932.54 6779.21 1983.18 6981.9 2031.44" stroke="white" stroke-width="5" stroke-miterlimit="10"/>
<path d="M-382.5 438.815C-111.102 580.742 123.793 758.045 310.91 962.213C750.992 1447.21 646.519 1805.26 920.56 1878.16C1344.03 1990.91 1711.5 1166.98 2635.02 1087.37C3312.39 1029 3956.52 1399.79 4105.49 1485.61C4687.14 1820.47 4733.58 2156.34 5172.29 2190.84C5493.11 2216.33 5606.34 2047.5 6116.87 2003.06C6472.28 1972.13 6775.11 2022.77 6977.91 2071.04" stroke="white" stroke-width="5" stroke-miterlimit="10"/>
<path d="M-386.256 478.411C-114.884 620.361 120.007 797.66 307.154 1001.81C747.236 1486.8 642.763 1844.85 916.691 1917.76C1340.04 2030.51 1707.75 1206.58 2631.15 1127.05C3308.63 1068.68 3952.65 1439.48 4101.85 1525.29C4683.39 1860.15 4729.93 2196.02 5168.65 2230.52C5489.35 2256.01 5602.59 2087.18 6113.23 2042.74C6468.75 2011.9 6771.59 2062.45 6974.27 2110.72" stroke="white" stroke-width="5" stroke-miterlimit="10"/>
<path d="M-389.777 518.09C-118.326 659.971 116.58 837.281 303.633 1041.49C743.714 1526.4 639.242 1884.45 913.283 1957.35C1336.41 2070.19 1704.22 1246 2627.4 1166.65C3304.77 1108.19 3948.9 1478.98 4097.98 1564.8C4679.64 1899.66 4726.07 2235.53 5164.79 2270.03C5485.6 2295.52 5598.84 2126.69 6109.36 2082.25C6464.77 2051.41 6767.61 2101.96 6970.41 2150.23" stroke="white" stroke-width="5" stroke-miterlimit="10"/>
<path d="M-393.879 557.769C-122.452 699.671 112.449 876.978 299.531 1081.17C739.613 1566.08 635.14 1924.13 909.068 1997.11C1332.53 2109.87 1700.12 1285.94 2623.53 1206.32C3301.01 1147.87 3945.03 1518.66 4094.22 1604.57C4675.77 1939.34 4722.31 2275.3 5161.03 2309.79C5481.84 2335.28 5594.96 2166.54 6105.6 2122.1C6461.13 2091.17 6763.96 2141.73 6966.65 2190.07" stroke="white" stroke-width="5" stroke-miterlimit="10"/>
<path d="M-397.75 597.282C-126.323 739.184 108.578 916.491 295.66 1120.68C735.742 1605.59 631.269 1963.64 905.31 2036.63C1328.66 2149.38 1696.25 1325.45 2619.77 1246.01C3297.14 1187.55 3941.27 1558.35 4090.35 1644.25C4672.01 1979.02 4718.44 2314.98 5157.16 2349.48C5477.97 2374.97 5591.21 2206.22 6101.73 2161.78C6457.14 2130.86 6759.98 2181.41 6962.78 2229.76" stroke="white" stroke-width="5" stroke-miterlimit="10"/>
<path d="M-401.164 636.878C-129.766 778.806 105.129 956.109 292.246 1160.28C732.328 1645.27 627.855 2003.24 901.782 2076.22C1324.91 2189.14 1692.84 1364.96 2615.9 1285.43C3293.38 1227.06 3937.51 1597.86 4086.6 1683.67C4668.14 2018.45 4714.68 2354.41 5153.4 2388.9C5474.21 2414.39 5587.34 2245.65 6097.98 2201.21C6453.5 2170.28 6756.34 2220.84 6959.02 2269.18" stroke="white" stroke-width="5" stroke-miterlimit="10"/>
<path d="M-405.367 676.723C-133.94 818.625 100.961 995.932 288.043 1200.12C728.125 1685.11 623.652 2043.08 897.693 2116.07C1321.16 2228.82 1688.63 1404.89 2612.16 1325.28C3289.52 1266.65 3933.65 1637.45 4082.74 1723.26C4664.39 2058.12 4710.82 2394 5149.54 2428.49C5470.35 2453.98 5583.59 2285.15 6094.12 2240.71C6449.53 2209.79 6752.36 2260.34 6955.16 2308.69" stroke="white" stroke-width="5" stroke-miterlimit="10"/>
<path d="M-409.131 716.069C-137.733 857.997 97.1624 1035.3 284.279 1239.47C724.361 1724.46 619.888 2082.43 893.816 2155.41C1317.28 2268.17 1684.87 1444.24 2608.28 1364.96C3285.76 1306.59 3929.89 1677.39 4078.97 1763.21C4660.51 2098.06 4707.06 2433.94 5145.78 2468.43C5466.59 2493.92 5579.71 2325.09 6090.35 2280.66C6445.88 2249.73 6748.71 2300.28 6951.4 2348.63" stroke="white" stroke-width="5" stroke-miterlimit="10"/>
<path d="M-412.541 755.666C-141.143 897.593 93.7523 1074.9 280.869 1279.06C720.951 1764.06 616.478 2122.11 890.519 2195.01C1313.53 2308.1 1681.46 1483.92 2604.53 1404.22C3281.89 1345.85 3926.02 1716.64 4075.11 1802.46C4656.76 2137.32 4703.19 2473.19 5141.91 2507.69C5462.72 2533.18 5575.96 2364.35 6086.49 2319.91C6441.9 2288.98 6744.84 2339.62 6947.53 2387.89" stroke="white" stroke-width="5" stroke-miterlimit="10"/>
<path d="M-416.748 795.678C-145.376 937.628 89.5144 1114.93 276.662 1319.08C716.744 1804.07 612.271 2162.12 886.198 2235.02C1309.66 2347.77 1677.25 1523.85 2600.66 1444.23C3278.14 1385.44 3922.27 1756.23 4071.36 1842.05C4653.01 2176.91 4699.44 2512.78 5138.16 2547.28C5458.97 2572.77 5572.09 2403.94 6082.73 2359.5C6438.26 2328.57 6741.09 2379.21 6943.78 2427.47" stroke="white" stroke-width="5" stroke-miterlimit="10"/>
<path d="M-420.619 834.94C-149.202 976.817 85.6981 1154.09 272.791 1358.25C712.873 1843.25 608.4 2201.3 882.441 2274.2C1305.91 2387.04 1673.38 1563.11 2596.9 1483.41C3274.27 1425.04 3918.4 1795.83 4067.48 1881.65C4649.14 2216.51 4695.68 2552.38 5134.29 2586.88C5455.1 2612.37 5568.34 2443.54 6078.86 2399.1C6434.27 2368.26 6737.22 2418.81 6939.91 2467.08" stroke="white" stroke-width="5" stroke-miterlimit="10"/>
<path d="M-423.92 874.521C-152.493 1016.42 82.4081 1193.73 269.49 1397.92C709.572 1882.83 605.099 2240.88 879.027 2313.87C1302.15 2427.04 1670.08 1602.86 2593.03 1523.08C3270.51 1464.62 3914.64 1835.42 4063.73 1921.32C4645.38 2256.09 4691.82 2591.96 5130.53 2626.55C5451.35 2652.04 5564.47 2483.21 6075.11 2438.85C6430.63 2407.92 6733.47 2458.48 6936.15 2506.83" stroke="white" stroke-width="5" stroke-miterlimit="10"/>
<path d="M-428.244 914.117C-156.817 1056.02 78.0838 1233.33 265.166 1437.52C705.248 1922.42 600.775 2280.48 874.816 2353.46C1298.28 2466.21 1665.87 1642.29 2589.28 1562.67C3266.64 1504.21 3910.78 1874.76 4059.97 1960.91C4641.51 2295.68 4688.06 2631.64 5126.66 2666.14C5447.48 2691.63 5560.71 2522.89 6071.24 2478.45C6426.76 2447.52 6729.6 2498.08 6932.28 2546.42" stroke="white" stroke-width="5" stroke-miterlimit="10"/>
<path d="M-432 953.713C-160.602 1095.64 74.2932 1272.94 261.41 1477.11C701.492 1962.1 597.019 2320.07 870.946 2393.06C1294.53 2505.81 1662 1681.88 2585.41 1602.27C3262.89 1543.81 3907.02 1914.61 4056.1 2000.51C4637.76 2335.28 4684.19 2671.24 5122.91 2705.74C5443.72 2731.23 5556.84 2562.48 6067.48 2518.04C6423.01 2487.12 6725.84 2537.67 6928.53 2586.02" stroke="white" stroke-width="5" stroke-miterlimit="10"/>
</g>
<defs>
<filter id="filter0_dd_1545_309" x="0" y="0" width="6596" height="2943" filterUnits="userSpaceOnUse" color-interpolation-filters="sRGB">
<feFlood flood-opacity="0" result="BackgroundImageFix"/>
<feColorMatrix in="SourceAlpha" type="matrix" values="0 0 0 0 0 0 0 0 0 0 0 0 0 0 0 0 0 0 127 0" result="hardAlpha"/>
<feOffset dy="4"/>
<feGaussianBlur stdDeviation="2"/>
<feComposite in2="hardAlpha" operator="out"/>
<feColorMatrix type="matrix" values="0 0 0 0 0 0 0 0 0 0 0 0 0 0 0 0 0 0 0.25 0"/>
<feBlend mode="normal" in2="BackgroundImageFix" result="effect1_dropShadow_1545_309"/>
<feColorMatrix in="SourceAlpha" type="matrix" values="0 0 0 0 0 0 0 0 0 0 0 0 0 0 0 0 0 0 127 0" result="hardAlpha"/>
<feOffset dy="4"/>
<feGaussianBlur stdDeviation="2"/>
<feComposite in2="hardAlpha" operator="out"/>
<feColorMatrix type="matrix" values="0 0 0 0 0 0 0 0 0 0 0 0 0 0 0 0 0 0 0.25 0"/>
<feBlend mode="normal" in2="effect1_dropShadow_1545_309" result="effect2_dropShadow_1545_309"/>
<feBlend mode="normal" in="SourceGraphic" in2="effect2_dropShadow_1545_309" result="shape"/>
</filter>
<clipPath id="clip0_1545_309">
<rect width="6588" height="2935" fill="white" transform="translate(4)"/>
</clipPath>
</defs>
</svg>
